solid Created by Gmsh
facet normal -1 0 0
  outer loop
    vertex -15 0 -15
    vertex -15 0 0
    vertex -15 7.5 -7.5
  endloop
endfacet
facet normal -1 0 0
  outer loop
    vertex -15 0 0
    vertex -15 7.5 7.5
    vertex -15 7.5 -7.5
  endloop
endfacet
facet normal -1 0 0
  outer loop
    vertex -15 0 0
    vertex -15 0 15
    vertex -15 7.5 7.5
  endloop
endfacet
facet normal -1 0 0
  outer loop
    vertex -15 7.5 -7.5
    vertex -15 7.5 7.5
    vertex -15 15 0
  endloop
endfacet
facet normal -1 0 0
  outer loop
    vertex -15 0 15
    vertex -15 15 15
    vertex -15 7.5 7.5
  endloop
endfacet
facet normal -1 0 -0
  outer loop
    vertex -15 15 15
    vertex -15 22.5 7.5
    vertex -15 7.5 7.5
  endloop
endfacet
facet normal -1 0 0
  outer loop
    vertex -15 15 15
    vertex -15 30 15
    vertex -15 22.5 7.5
  endloop
endfacet
facet normal -1 0 0
  outer loop
    vertex -15 7.5 7.5
    vertex -15 22.5 7.5
    vertex -15 15 0
  endloop
endfacet
facet normal -1 0 0
  outer loop
    vertex -15 30 -15
    vertex -15 15 -15
    vertex -15 22.5 -7.5
  endloop
endfacet
facet normal -1 0 0
  outer loop
    vertex -15 15 -15
    vertex -15 7.5 -7.5
    vertex -15 22.5 -7.5
  endloop
endfacet
facet normal -1 0 0
  outer loop
    vertex -15 15 -15
    vertex -15 0 -15
    vertex -15 7.5 -7.5
  endloop
endfacet
facet normal -1 0 0
  outer loop
    vertex -15 22.5 -7.5
    vertex -15 7.5 -7.5
    vertex -15 15 0
  endloop
endfacet
facet normal -1 0 -0
  outer loop
    vertex -15 30 15
    vertex -15 30 0
    vertex -15 22.5 7.5
  endloop
endfacet
facet normal -1 -0 0
  outer loop
    vertex -15 30 0
    vertex -15 22.5 -7.5
    vertex -15 22.5 7.5
  endloop
endfacet
facet normal -1 0 -0
  outer loop
    vertex -15 30 0
    vertex -15 30 -15
    vertex -15 22.5 -7.5
  endloop
endfacet
facet normal -1 0 -0
  outer loop
    vertex -15 22.5 7.5
    vertex -15 22.5 -7.5
    vertex -15 15 0
  endloop
endfacet
facet normal 1 0 0
  outer loop
    vertex 15 0 -15
    vertex 15 7.5 -7.5
    vertex 15 0 0
  endloop
endfacet
facet normal 1 0 -0
  outer loop
    vertex 15 7.5 -7.5
    vertex 15 7.5 7.5
    vertex 15 0 0
  endloop
endfacet
facet normal 1 0 0
  outer loop
    vertex 15 7.5 -7.5
    vertex 15 15 0
    vertex 15 7.5 7.5
  endloop
endfacet
facet normal 1 0 0
  outer loop
    vertex 15 0 0
    vertex 15 7.5 7.5
    vertex 15 0 15
  endloop
endfacet
facet normal 1 -0 0
  outer loop
    vertex 15 0 15
    vertex 15 7.5 7.5
    vertex 15 15 15
  endloop
endfacet
facet normal 1 0 0
  outer loop
    vertex 15 7.5 7.5
    vertex 15 22.5 7.5
    vertex 15 15 15
  endloop
endfacet
facet normal 1 -0 0
  outer loop
    vertex 15 7.5 7.5
    vertex 15 15 0
    vertex 15 22.5 7.5
  endloop
endfacet
facet normal 1 -0 0
  outer loop
    vertex 15 15 15
    vertex 15 22.5 7.5
    vertex 15 30 15
  endloop
endfacet
facet normal 1 0 0
  outer loop
    vertex 15 30 -15
    vertex 15 22.5 -7.5
    vertex 15 15 -15
  endloop
endfacet
facet normal 1 0 0
  outer loop
    vertex 15 22.5 -7.5
    vertex 15 7.5 -7.5
    vertex 15 15 -15
  endloop
endfacet
facet normal 1 0 0
  outer loop
    vertex 15 22.5 -7.5
    vertex 15 15 0
    vertex 15 7.5 -7.5
  endloop
endfacet
facet normal 1 0 0
  outer loop
    vertex 15 15 -15
    vertex 15 7.5 -7.5
    vertex 15 0 -15
  endloop
endfacet
facet normal 1 0 0
  outer loop
    vertex 15 30 15
    vertex 15 22.5 7.5
    vertex 15 30 0
  endloop
endfacet
facet normal 1 0 0
  outer loop
    vertex 15 22.5 7.5
    vertex 15 22.5 -7.5
    vertex 15 30 0
  endloop
endfacet
facet normal 1 0 0
  outer loop
    vertex 15 22.5 7.5
    vertex 15 15 0
    vertex 15 22.5 -7.5
  endloop
endfacet
facet normal 1 0 0
  outer loop
    vertex 15 30 0
    vertex 15 22.5 -7.5
    vertex 15 30 -15
  endloop
endfacet
facet normal 0 -1 0
  outer loop
    vertex -15 0 15
    vertex -15 0 0
    vertex -7.5 0 7.5
  endloop
endfacet
facet normal 0 -1 0
  outer loop
    vertex -15 0 0
    vertex -7.5 0 -7.5
    vertex -7.5 0 7.5
  endloop
endfacet
facet normal 0 -1 0
  outer loop
    vertex -15 0 0
    vertex -15 0 -15
    vertex -7.5 0 -7.5
  endloop
endfacet
facet normal 0 -1 0
  outer loop
    vertex -7.5 0 7.5
    vertex -7.5 0 -7.5
    vertex 0 0 0
  endloop
endfacet
facet normal -0 -1 0
  outer loop
    vertex 15 0 15
    vertex 0 0 15
    vertex 7.5 0 7.5
  endloop
endfacet
facet normal 0 -1 -0
  outer loop
    vertex 0 0 15
    vertex -7.5 0 7.5
    vertex 7.5 0 7.5
  endloop
endfacet
facet normal -0 -1 0
  outer loop
    vertex 0 0 15
    vertex -15 0 15
    vertex -7.5 0 7.5
  endloop
endfacet
facet normal -0 -1 0
  outer loop
    vertex 7.5 0 7.5
    vertex -7.5 0 7.5
    vertex 0 0 0
  endloop
endfacet
facet normal 0 -1 0
  outer loop
    vertex -15 0 -15
    vertex 0 0 -15
    vertex -7.5 0 -7.5
  endloop
endfacet
facet normal 0 -1 0
  outer loop
    vertex 0 0 -15
    vertex 7.5 0 -7.5
    vertex -7.5 0 -7.5
  endloop
endfacet
facet normal 0 -1 0
  outer loop
    vertex 0 0 -15
    vertex 15 0 -15
    vertex 7.5 0 -7.5
  endloop
endfacet
facet normal 0 -1 0
  outer loop
    vertex -7.5 0 -7.5
    vertex 7.5 0 -7.5
    vertex 0 0 0
  endloop
endfacet
facet normal 0 -1 0
  outer loop
    vertex 15 0 -15
    vertex 15 0 0
    vertex 7.5 0 -7.5
  endloop
endfacet
facet normal -0 -1 0
  outer loop
    vertex 15 0 0
    vertex 7.5 0 7.5
    vertex 7.5 0 -7.5
  endloop
endfacet
facet normal 0 -1 0
  outer loop
    vertex 15 0 0
    vertex 15 0 15
    vertex 7.5 0 7.5
  endloop
endfacet
facet normal 0 -1 0
  outer loop
    vertex 7.5 0 -7.5
    vertex 7.5 0 7.5
    vertex 0 0 0
  endloop
endfacet
facet normal 0 1 0
  outer loop
    vertex -15 30 15
    vertex -7.5 30 7.5
    vertex -15 30 0
  endloop
endfacet
facet normal 0 1 0
  outer loop
    vertex -7.5 30 7.5
    vertex -7.5 30 -7.5
    vertex -15 30 0
  endloop
endfacet
facet normal 0 1 0
  outer loop
    vertex -7.5 30 7.5
    vertex 0 30 0
    vertex -7.5 30 -7.5
  endloop
endfacet
facet normal 0 1 0
  outer loop
    vertex -15 30 0
    vertex -7.5 30 -7.5
    vertex -15 30 -15
  endloop
endfacet
facet normal 0 1 0
  outer loop
    vertex 15 30 15
    vertex 7.5 30 7.5
    vertex 0 30 15
  endloop
endfacet
facet normal 0 1 0
  outer loop
    vertex 7.5 30 7.5
    vertex -7.5 30 7.5
    vertex 0 30 15
  endloop
endfacet
facet normal 0 1 0
  outer loop
    vertex 7.5 30 7.5
    vertex 0 30 0
    vertex -7.5 30 7.5
  endloop
endfacet
facet normal 0 1 0
  outer loop
    vertex 0 30 15
    vertex -7.5 30 7.5
    vertex -15 30 15
  endloop
endfacet
facet normal 0 1 0
  outer loop
    vertex -15 30 -15
    vertex -7.5 30 -7.5
    vertex 0 30 -15
  endloop
endfacet
facet normal -0 1 0
  outer loop
    vertex -7.5 30 -7.5
    vertex 7.5 30 -7.5
    vertex 0 30 -15
  endloop
endfacet
facet normal 0 1 0
  outer loop
    vertex -7.5 30 -7.5
    vertex 0 30 0
    vertex 7.5 30 -7.5
  endloop
endfacet
facet normal 0 1 0
  outer loop
    vertex 0 30 -15
    vertex 7.5 30 -7.5
    vertex 15 30 -15
  endloop
endfacet
facet normal 0 1 -0
  outer loop
    vertex 15 30 -15
    vertex 7.5 30 -7.5
    vertex 15 30 0
  endloop
endfacet
facet normal 0 1 0
  outer loop
    vertex 7.5 30 -7.5
    vertex 7.5 30 7.5
    vertex 15 30 0
  endloop
endfacet
facet normal 0 1 -0
  outer loop
    vertex 7.5 30 -7.5
    vertex 0 30 0
    vertex 7.5 30 7.5
  endloop
endfacet
facet normal 0 1 -0
  outer loop
    vertex 15 30 0
    vertex 7.5 30 7.5
    vertex 15 30 15
  endloop
endfacet
facet normal 0 0 -1
  outer loop
    vertex -15 0 -15
    vertex -15 15 -15
    vertex -7.5 7.5 -15
  endloop
endfacet
facet normal 0 0 -1
  outer loop
    vertex -15 15 -15
    vertex -7.5 22.5 -15
    vertex -7.5 7.5 -15
  endloop
endfacet
facet normal 0 0 -1
  outer loop
    vertex -15 15 -15
    vertex -15 30 -15
    vertex -7.5 22.5 -15
  endloop
endfacet
facet normal 0 0 -1
  outer loop
    vertex -7.5 7.5 -15
    vertex -7.5 22.5 -15
    vertex 0 15 -15
  endloop
endfacet
facet normal 0 0 -1
  outer loop
    vertex 15 0 -15
    vertex 0 0 -15
    vertex 7.5 7.5 -15
  endloop
endfacet
facet normal 0 0 -1
  outer loop
    vertex 0 0 -15
    vertex -7.5 7.5 -15
    vertex 7.5 7.5 -15
  endloop
endfacet
facet normal 0 0 -1
  outer loop
    vertex 0 0 -15
    vertex -15 0 -15
    vertex -7.5 7.5 -15
  endloop
endfacet
facet normal 0 0 -1
  outer loop
    vertex 7.5 7.5 -15
    vertex -7.5 7.5 -15
    vertex 0 15 -15
  endloop
endfacet
facet normal 0 0 -1
  outer loop
    vertex -15 30 -15
    vertex 0 30 -15
    vertex -7.5 22.5 -15
  endloop
endfacet
facet normal 0 -0 -1
  outer loop
    vertex 0 30 -15
    vertex 7.5 22.5 -15
    vertex -7.5 22.5 -15
  endloop
endfacet
facet normal 0 0 -1
  outer loop
    vertex 0 30 -15
    vertex 15 30 -15
    vertex 7.5 22.5 -15
  endloop
endfacet
facet normal 0 0 -1
  outer loop
    vertex -7.5 22.5 -15
    vertex 7.5 22.5 -15
    vertex 0 15 -15
  endloop
endfacet
facet normal 0 -0 -1
  outer loop
    vertex 15 30 -15
    vertex 15 15 -15
    vertex 7.5 22.5 -15
  endloop
endfacet
facet normal -0 0 -1
  outer loop
    vertex 15 15 -15
    vertex 7.5 7.5 -15
    vertex 7.5 22.5 -15
  endloop
endfacet
facet normal 0 -0 -1
  outer loop
    vertex 15 15 -15
    vertex 15 0 -15
    vertex 7.5 7.5 -15
  endloop
endfacet
facet normal 0 -0 -1
  outer loop
    vertex 7.5 22.5 -15
    vertex 7.5 7.5 -15
    vertex 0 15 -15
  endloop
endfacet
facet normal 0 0 1
  outer loop
    vertex -15 0 15
    vertex -7.5 7.5 15
    vertex -15 15 15
  endloop
endfacet
facet normal 0 -0 1
  outer loop
    vertex -7.5 7.5 15
    vertex -7.5 22.5 15
    vertex -15 15 15
  endloop
endfacet
facet normal 0 0 1
  outer loop
    vertex -7.5 7.5 15
    vertex 0 15 15
    vertex -7.5 22.5 15
  endloop
endfacet
facet normal 0 0 1
  outer loop
    vertex -15 15 15
    vertex -7.5 22.5 15
    vertex -15 30 15
  endloop
endfacet
facet normal 0 0 1
  outer loop
    vertex 15 0 15
    vertex 7.5 7.5 15
    vertex 0 0 15
  endloop
endfacet
facet normal 0 0 1
  outer loop
    vertex 7.5 7.5 15
    vertex -7.5 7.5 15
    vertex 0 0 15
  endloop
endfacet
facet normal 0 0 1
  outer loop
    vertex 7.5 7.5 15
    vertex 0 15 15
    vertex -7.5 7.5 15
  endloop
endfacet
facet normal 0 0 1
  outer loop
    vertex 0 0 15
    vertex -7.5 7.5 15
    vertex -15 0 15
  endloop
endfacet
facet normal -0 0 1
  outer loop
    vertex -15 30 15
    vertex -7.5 22.5 15
    vertex 0 30 15
  endloop
endfacet
facet normal 0 0 1
  outer loop
    vertex -7.5 22.5 15
    vertex 7.5 22.5 15
    vertex 0 30 15
  endloop
endfacet
facet normal -0 0 1
  outer loop
    vertex -7.5 22.5 15
    vertex 0 15 15
    vertex 7.5 22.5 15
  endloop
endfacet
facet normal -0 0 1
  outer loop
    vertex 0 30 15
    vertex 7.5 22.5 15
    vertex 15 30 15
  endloop
endfacet
facet normal 0 0 1
  outer loop
    vertex 15 30 15
    vertex 7.5 22.5 15
    vertex 15 15 15
  endloop
endfacet
facet normal 0 0 1
  outer loop
    vertex 7.5 22.5 15
    vertex 7.5 7.5 15
    vertex 15 15 15
  endloop
endfacet
facet normal 0 0 1
  outer loop
    vertex 7.5 22.5 15
    vertex 0 15 15
    vertex 7.5 7.5 15
  endloop
endfacet
facet normal 0 0 1
  outer loop
    vertex 15 15 15
    vertex 7.5 7.5 15
    vertex 15 0 15
  endloop
endfacet
endsolid Created by Gmsh
